<?xml version="1.0" encoding="iso-8859-1"?>
<!-- Generator: Adobe Illustrator 19.0.0, SVG Export Plug-In . SVG Version: 6.00 Build 0)  -->
<svg version="1.1" id="Capa_1" xmlns="http://www.w3.org/2000/svg" xmlns:xlink="http://www.w3.org/1999/xlink" x="0px" y="0px"
	 viewBox="0 0 472 472" style="enable-background:new 0 0 472 472;" xml:space="preserve">
<path style="fill:#CCCCCC;" d="M344,263.792h16v168h-16V263.792z"/>
<path style="fill:#E6E6E6;" d="M255.792,63.792c-4.992,13.6-7.792,76.416-7.792,92c0,64.064,46.56,116,104,116s104-51.936,104-116
	c0-15.584-2.8-78.4-7.792-92H255.792z"/>
<path style="fill:#DA4836;" d="M248.256,143.792c-0.168,5.072-0.256,9.288-0.256,12c0,64.064,46.56,116,104,116s104-51.936,104-116
	c0-2.712-0.088-6.928-0.256-12H248.256z"/>
<g>
	<path style="fill:#AE3A2B;" d="M280,167.792h16v16h-16V167.792z"/>
	<path style="fill:#AE3A2B;" d="M336,175.792h16v16h-16V175.792z"/>
	<path style="fill:#AE3A2B;" d="M320,215.792h16v16h-16V215.792z"/>
	<path style="fill:#AE3A2B;" d="M392,215.792h16v16h-16V215.792z"/>
	<path style="fill:#AE3A2B;" d="M416,167.792h16v16h-16V167.792z"/>
</g>
<path style="fill:#754C24;" d="M383.856,201.296l-15.712-3.008l32-168c0.546-2.841,2.583-5.166,5.328-6.08l48-16l5.056,15.2
	l-43.544,14.496L383.856,201.296z"/>
<path style="fill:#DA4836;" d="M272,423.792h144l16,32H272V423.792z"/>
<path style="fill:#AE3A2B;" d="M248,447.792h224v16H248V447.792z"/>
<circle style="fill:#FBB03B;" cx="248" cy="383.792" r="72"/>
<path style="fill:#E6E6E6;" d="M192,423.792H16l-16-176h208L192,423.792z"/>
<path style="fill:#DA4836;" d="M200,335.792H8l8,88h176L200,335.792z"/>
<path style="fill:#80CAEC;" d="M154.144,322.512l-41.6-24c-7.652-4.418-17.438-1.796-21.856,5.856l-18.112,31.424h89.52
	C161.916,330.289,158.91,325.269,154.144,322.512L154.144,322.512z"/>
<path style="fill:#B3B3B3;" d="M16,423.792h176v32H16V423.792z"/>
<path style="fill:#AE3A2B;" d="M72.576,367.792l41.6,24c7.645,4.396,17.406,1.777,21.824-5.856l24-41.6
	c1.487-2.595,2.214-5.556,2.096-8.544h-89.52l-5.856,10.144C62.302,353.589,64.924,363.374,72.576,367.792z"/>
<g>
	<path style="fill:#FBB03B;" d="M104,351.792h16v16h-16V351.792z"/>
	<path style="fill:#FBB03B;" d="M32,375.792h16v16H32V375.792z"/>
	<path style="fill:#FBB03B;" d="M160,391.792h16v16h-16V391.792z"/>
</g>
<path style="fill:#F15A24;" d="M272,379.104c-13.255-0.003-23.998-10.75-23.995-24.005c0.001-6.362,2.529-12.463,7.027-16.963
	l11.312,11.312c-3.118,3.123-3.118,8.181,0,11.304c3.162,3.039,8.158,3.039,11.32,0l11.32,11.312
	C284.491,376.586,278.375,379.121,272,379.104L272,379.104z"/>
<g>
</g>
<g>
</g>
<g>
</g>
<g>
</g>
<g>
</g>
<g>
</g>
<g>
</g>
<g>
</g>
<g>
</g>
<g>
</g>
<g>
</g>
<g>
</g>
<g>
</g>
<g>
</g>
<g>
</g>
</svg>
